<svg width="1000" height="300" viewBox="0 0 1000 300" fill="none" xmlns="http://www.w3.org/2000/svg">
<rect width="1000" height="300" fill="white"/>
<path d="M508.423 110.692L502.5 142L525.754 147.265C527.225 147.598 527.812 149.378 526.827 150.521L492.098 190.824C491.1 191.982 489.213 191.081 489.486 189.577L495.5 156.5L473.48 153.046C471.947 152.805 471.26 150.985 472.252 149.791L505.796 109.454C506.786 108.264 508.711 109.171 508.423 110.692Z" fill="black"/>
<path d="M258.109 184.359C251.484 184.359 246.672 181.703 243.672 176.391L242.828 183H235.047V110.062H243.672V137.203C245.109 134.484 247.094 132.484 249.625 131.203C252.156 129.891 255 129.234 258.156 129.234C261.906 129.234 265.062 130.047 267.625 131.672C270.188 133.266 272.234 135.406 273.766 138.094C275.328 140.75 276.438 143.703 277.094 146.953C277.781 150.203 278.125 153.453 278.125 156.703C278.125 159.984 277.781 163.266 277.094 166.547C276.406 169.797 275.281 172.766 273.719 175.453C272.188 178.141 270.141 180.297 267.578 181.922C265.016 183.547 261.859 184.359 258.109 184.359ZM256.375 177.047C259.125 177.047 261.328 176.406 262.984 175.125C264.672 173.844 265.938 172.172 266.781 170.109C267.656 168.047 268.25 165.844 268.562 163.5C268.875 161.156 269.031 158.922 269.031 156.797C269.031 154.672 268.875 152.438 268.562 150.094C268.25 147.719 267.656 145.516 266.781 143.484C265.938 141.422 264.672 139.75 262.984 138.469C261.328 137.188 259.125 136.547 256.375 136.547C253.656 136.547 251.453 137.188 249.766 138.469C248.109 139.75 246.828 141.406 245.922 143.438C245.047 145.469 244.453 147.672 244.141 150.047C243.828 152.391 243.672 154.625 243.672 156.75C243.672 158.906 243.828 161.172 244.141 163.547C244.453 165.891 245.047 168.094 245.922 170.156C246.828 172.188 248.109 173.844 249.766 175.125C251.453 176.406 253.656 177.047 256.375 177.047ZM312.812 184.359C305.5 184.359 299.906 182 296.031 177.281C292.188 172.531 290.266 165.719 290.266 156.844C290.266 147.938 292.203 141.109 296.078 136.359C299.953 131.609 305.516 129.234 312.766 129.234C320.016 129.234 325.562 131.609 329.406 136.359C333.281 141.078 335.219 147.922 335.219 156.891C335.219 165.797 333.297 172.609 329.453 177.328C325.609 182.016 320.062 184.359 312.812 184.359ZM312.766 177.047C317.047 177.047 320.328 175.297 322.609 171.797C324.922 168.297 326.078 163.281 326.078 156.75C326.078 150.25 324.922 145.266 322.609 141.797C320.328 138.297 317.047 136.547 312.766 136.547C308.453 136.547 305.141 138.297 302.828 141.797C300.547 145.266 299.406 150.25 299.406 156.75C299.406 163.281 300.562 168.297 302.875 171.797C305.188 175.297 308.484 177.047 312.766 177.047ZM380.172 183.375C375.016 183.375 371.016 181.719 368.172 178.406C365.359 175.062 363.953 170.375 363.953 164.344V116.812H350.125V110.062H372.578V164.344C372.578 168.156 373.297 171.062 374.734 173.062C376.172 175.062 378.266 176.062 381.016 176.062H391.094V183.375H380.172ZM437.359 183.188C430.922 183.188 426.359 181.891 423.672 179.297C421.016 176.672 419.688 172.203 419.688 165.891V137.203H405.672V130.5H419.688V116.766L428.312 113.016V130.5H447.906V137.203H428.312V165.891C428.312 169.734 429.047 172.438 430.516 174C431.984 175.531 434.547 176.297 438.203 176.297H447.906V183.188H437.359Z" fill="black"/>
<path d="M574.047 184.359C568.516 184.359 563.859 183.203 560.078 180.891C556.328 178.547 553.484 175.297 551.547 171.141C549.641 166.984 548.688 162.203 548.688 156.797C548.688 151.359 549.656 146.578 551.594 142.453C553.531 138.297 556.391 135.062 560.172 132.75C563.953 130.406 568.641 129.234 574.234 129.234C577.141 129.234 579.766 129.578 582.109 130.266C584.453 130.922 586.844 131.922 589.281 133.266V142.312C587.062 140.344 584.828 138.891 582.578 137.953C580.359 137.016 577.828 136.547 574.984 136.547C570.766 136.547 567.391 137.453 564.859 139.266C562.359 141.078 560.547 143.516 559.422 146.578C558.328 149.641 557.781 153.047 557.781 156.797C557.781 160.516 558.344 163.922 559.469 167.016C560.594 170.078 562.406 172.516 564.906 174.328C567.406 176.141 570.75 177.047 574.938 177.047C577.688 177.047 580.25 176.594 582.625 175.688C585 174.781 587.219 173.344 589.281 171.375V180.328C584.812 183.016 579.734 184.359 574.047 184.359ZM607.984 110.062H616.609V138.375C619.766 132.281 624.938 129.234 632.125 129.234C636.438 129.234 639.734 130.234 642.016 132.234C644.328 134.234 645.922 136.844 646.797 140.062C647.672 143.281 648.109 146.75 648.109 150.469V183H639.438V150.469C639.438 145.75 638.609 142.281 636.953 140.062C635.297 137.844 632.719 136.734 629.219 136.734C625.969 136.734 623.422 137.547 621.578 139.172C619.766 140.766 618.484 142.828 617.734 145.359C616.984 147.891 616.609 150.547 616.609 153.328V183H607.984V110.062ZM680.547 184.359C675.484 184.359 671.297 182.906 667.984 180C664.703 177.062 663.062 172.859 663.062 167.391C663.062 162.859 664.156 159.328 666.344 156.797C668.531 154.234 671.391 152.438 674.922 151.406C678.453 150.375 682.219 149.859 686.219 149.859H697.797V148.5C697.797 144.031 696.656 140.922 694.375 139.172C692.125 137.422 688.953 136.547 684.859 136.547C681.672 136.547 678.547 136.984 675.484 137.859C672.422 138.734 669.562 139.953 666.906 141.516V132.891C669.781 131.828 672.688 130.953 675.625 130.266C678.562 129.578 681.562 129.234 684.625 129.234C687.75 129.234 690.781 129.672 693.719 130.547C696.688 131.391 699.25 132.797 701.406 134.766C703.562 136.703 705 139.312 705.719 142.594C706.219 144.906 706.469 148.391 706.469 153.047V163.781C706.469 166.719 706.625 169.969 706.938 173.531C707.281 177.094 708.047 180.25 709.234 183H700.562C700.031 181.781 699.609 180.484 699.297 179.109C698.984 177.703 698.734 176.344 698.547 175.031C696.703 178.188 694.141 180.531 690.859 182.062C687.609 183.594 684.172 184.359 680.547 184.359ZM682.656 177.141C686.219 177.141 689.109 176.266 691.328 174.516C693.578 172.766 695.219 170.484 696.25 167.672C697.281 164.828 697.797 161.781 697.797 158.531V156.609H686.875C684.438 156.609 682.047 156.891 679.703 157.453C677.391 157.984 675.469 159.016 673.938 160.547C672.438 162.078 671.688 164.312 671.688 167.25C671.688 170.562 672.703 173.047 674.734 174.703C676.766 176.328 679.406 177.141 682.656 177.141ZM752.359 183.188C745.922 183.188 741.359 181.891 738.672 179.297C736.016 176.672 734.688 172.203 734.688 165.891V137.203H720.672V130.5H734.688V116.766L743.312 113.016V130.5H762.906V137.203H743.312V165.891C743.312 169.734 744.047 172.438 745.516 174C746.984 175.531 749.547 176.297 753.203 176.297H762.906V183.188H752.359Z" fill="#6D6D6D"/>
</svg>
