<svg width="1280" height="640" viewBox="0 0 1280 640" fill="none" xmlns="http://www.w3.org/2000/svg">
<rect width="1280" height="640" fill="white"/>
<path d="M648.423 280.692L642.5 312L665.754 317.265C667.225 317.598 667.812 319.378 666.827 320.521L632.098 360.824C631.1 361.982 629.213 361.081 629.486 359.577L635.5 326.5L613.48 323.046C611.947 322.805 611.26 320.985 612.252 319.791L645.796 279.454C646.786 278.264 648.711 279.171 648.423 280.692Z" fill="black"/>
<path d="M398.109 354.359C391.484 354.359 386.672 351.703 383.672 346.391L382.828 353H375.047V280.062H383.672V307.203C385.109 304.484 387.094 302.484 389.625 301.203C392.156 299.891 395 299.234 398.156 299.234C401.906 299.234 405.062 300.047 407.625 301.672C410.188 303.266 412.234 305.406 413.766 308.094C415.328 310.75 416.438 313.703 417.094 316.953C417.781 320.203 418.125 323.453 418.125 326.703C418.125 329.984 417.781 333.266 417.094 336.547C416.406 339.797 415.281 342.766 413.719 345.453C412.188 348.141 410.141 350.297 407.578 351.922C405.016 353.547 401.859 354.359 398.109 354.359ZM396.375 347.047C399.125 347.047 401.328 346.406 402.984 345.125C404.672 343.844 405.938 342.172 406.781 340.109C407.656 338.047 408.25 335.844 408.562 333.5C408.875 331.156 409.031 328.922 409.031 326.797C409.031 324.672 408.875 322.438 408.562 320.094C408.25 317.719 407.656 315.516 406.781 313.484C405.938 311.422 404.672 309.75 402.984 308.469C401.328 307.188 399.125 306.547 396.375 306.547C393.656 306.547 391.453 307.188 389.766 308.469C388.109 309.75 386.828 311.406 385.922 313.438C385.047 315.469 384.453 317.672 384.141 320.047C383.828 322.391 383.672 324.625 383.672 326.75C383.672 328.906 383.828 331.172 384.141 333.547C384.453 335.891 385.047 338.094 385.922 340.156C386.828 342.188 388.109 343.844 389.766 345.125C391.453 346.406 393.656 347.047 396.375 347.047ZM452.812 354.359C445.5 354.359 439.906 352 436.031 347.281C432.188 342.531 430.266 335.719 430.266 326.844C430.266 317.938 432.203 311.109 436.078 306.359C439.953 301.609 445.516 299.234 452.766 299.234C460.016 299.234 465.562 301.609 469.406 306.359C473.281 311.078 475.219 317.922 475.219 326.891C475.219 335.797 473.297 342.609 469.453 347.328C465.609 352.016 460.062 354.359 452.812 354.359ZM452.766 347.047C457.047 347.047 460.328 345.297 462.609 341.797C464.922 338.297 466.078 333.281 466.078 326.75C466.078 320.25 464.922 315.266 462.609 311.797C460.328 308.297 457.047 306.547 452.766 306.547C448.453 306.547 445.141 308.297 442.828 311.797C440.547 315.266 439.406 320.25 439.406 326.75C439.406 333.281 440.562 338.297 442.875 341.797C445.188 345.297 448.484 347.047 452.766 347.047ZM520.172 353.375C515.016 353.375 511.016 351.719 508.172 348.406C505.359 345.062 503.953 340.375 503.953 334.344V286.812H490.125V280.062H512.578V334.344C512.578 338.156 513.297 341.062 514.734 343.062C516.172 345.062 518.266 346.062 521.016 346.062H531.094V353.375H520.172ZM577.359 353.188C570.922 353.188 566.359 351.891 563.672 349.297C561.016 346.672 559.688 342.203 559.688 335.891V307.203H545.672V300.5H559.688V286.766L568.312 283.016V300.5H587.906V307.203H568.312V335.891C568.312 339.734 569.047 342.438 570.516 344C571.984 345.531 574.547 346.297 578.203 346.297H587.906V353.188H577.359Z" fill="black"/>
<path d="M714.047 354.359C708.516 354.359 703.859 353.203 700.078 350.891C696.328 348.547 693.484 345.297 691.547 341.141C689.641 336.984 688.688 332.203 688.688 326.797C688.688 321.359 689.656 316.578 691.594 312.453C693.531 308.297 696.391 305.062 700.172 302.75C703.953 300.406 708.641 299.234 714.234 299.234C717.141 299.234 719.766 299.578 722.109 300.266C724.453 300.922 726.844 301.922 729.281 303.266V312.312C727.062 310.344 724.828 308.891 722.578 307.953C720.359 307.016 717.828 306.547 714.984 306.547C710.766 306.547 707.391 307.453 704.859 309.266C702.359 311.078 700.547 313.516 699.422 316.578C698.328 319.641 697.781 323.047 697.781 326.797C697.781 330.516 698.344 333.922 699.469 337.016C700.594 340.078 702.406 342.516 704.906 344.328C707.406 346.141 710.75 347.047 714.938 347.047C717.688 347.047 720.25 346.594 722.625 345.688C725 344.781 727.219 343.344 729.281 341.375V350.328C724.812 353.016 719.734 354.359 714.047 354.359ZM747.984 280.062H756.609V308.375C759.766 302.281 764.938 299.234 772.125 299.234C776.438 299.234 779.734 300.234 782.016 302.234C784.328 304.234 785.922 306.844 786.797 310.062C787.672 313.281 788.109 316.75 788.109 320.469V353H779.438V320.469C779.438 315.75 778.609 312.281 776.953 310.062C775.297 307.844 772.719 306.734 769.219 306.734C765.969 306.734 763.422 307.547 761.578 309.172C759.766 310.766 758.484 312.828 757.734 315.359C756.984 317.891 756.609 320.547 756.609 323.328V353H747.984V280.062ZM820.547 354.359C815.484 354.359 811.297 352.906 807.984 350C804.703 347.062 803.062 342.859 803.062 337.391C803.062 332.859 804.156 329.328 806.344 326.797C808.531 324.234 811.391 322.438 814.922 321.406C818.453 320.375 822.219 319.859 826.219 319.859H837.797V318.5C837.797 314.031 836.656 310.922 834.375 309.172C832.125 307.422 828.953 306.547 824.859 306.547C821.672 306.547 818.547 306.984 815.484 307.859C812.422 308.734 809.562 309.953 806.906 311.516V302.891C809.781 301.828 812.688 300.953 815.625 300.266C818.562 299.578 821.562 299.234 824.625 299.234C827.75 299.234 830.781 299.672 833.719 300.547C836.688 301.391 839.25 302.797 841.406 304.766C843.562 306.703 845 309.312 845.719 312.594C846.219 314.906 846.469 318.391 846.469 323.047V333.781C846.469 336.719 846.625 339.969 846.938 343.531C847.281 347.094 848.047 350.25 849.234 353H840.562C840.031 351.781 839.609 350.484 839.297 349.109C838.984 347.703 838.734 346.344 838.547 345.031C836.703 348.188 834.141 350.531 830.859 352.062C827.609 353.594 824.172 354.359 820.547 354.359ZM822.656 347.141C826.219 347.141 829.109 346.266 831.328 344.516C833.578 342.766 835.219 340.484 836.25 337.672C837.281 334.828 837.797 331.781 837.797 328.531V326.609H826.875C824.438 326.609 822.047 326.891 819.703 327.453C817.391 327.984 815.469 329.016 813.938 330.547C812.438 332.078 811.688 334.312 811.688 337.25C811.688 340.562 812.703 343.047 814.734 344.703C816.766 346.328 819.406 347.141 822.656 347.141ZM892.359 353.188C885.922 353.188 881.359 351.891 878.672 349.297C876.016 346.672 874.688 342.203 874.688 335.891V307.203H860.672V300.5H874.688V286.766L883.312 283.016V300.5H902.906V307.203H883.312V335.891C883.312 339.734 884.047 342.438 885.516 344C886.984 345.531 889.547 346.297 893.203 346.297H902.906V353.188H892.359Z" fill="#6D6D6D"/>
</svg>
